<svg width="60" height="60" viewBox="0 0 60 60" fill="none" xmlns="http://www.w3.org/2000/svg">
<path d="M30.5 54L23.1388 41.25L37.8612 41.25L30.5 54Z" fill="#565656"/>
<rect x="13" y="7" width="35" height="35" rx="5" fill="#565656"/>
<path d="M40.75 31.0183C40.54 31.0181 40.3324 30.9739 40.1406 30.8884C40.096 30.8686 40.0535 30.8444 40.0136 30.8162L36.1366 28.0872C35.9399 27.9488 35.7795 27.7651 35.6687 27.5517C35.5579 27.3383 35.5001 27.1014 35.5 26.8609V23.1391C35.5001 22.8986 35.5579 22.6617 35.6687 22.4483C35.7795 22.2349 35.9399 22.0512 36.1366 21.9128L40.0136 19.1837C40.0535 19.1556 40.096 19.1314 40.1406 19.1116C40.369 19.01 40.6191 18.9672 40.8683 18.9869C41.1174 19.0066 41.3577 19.0882 41.5673 19.2244C41.7769 19.3606 41.9491 19.547 42.0683 19.7666C42.1875 19.9863 42.25 20.2323 42.25 20.4822V29.5178C42.25 29.9156 42.092 30.2972 41.8107 30.5785C41.5294 30.8598 41.1478 31.0178 40.75 31.0178V31.0183ZM31.5625 31.75H22.9375C22.0924 31.7491 21.2821 31.413 20.6846 30.8154C20.087 30.2179 19.7509 29.4076 19.75 28.5625V21.4375C19.7509 20.5924 20.087 19.7821 20.6846 19.1846C21.2821 18.587 22.0924 18.2509 22.9375 18.25H31.585C32.4241 18.251 33.2286 18.5848 33.8219 19.1781C34.4152 19.7714 34.749 20.5759 34.75 21.415V28.5625C34.7491 29.4076 34.413 30.2179 33.8154 30.8154C33.2179 31.413 32.4076 31.7491 31.5625 31.75Z" fill="white"/>
</svg>
